HIERARCHY
ROOT Hips
{
	OFFSET 0.000000 0.000000 0.000000
	CHANNELS 6 Xposition Yposition Zposition Xrotation Yrotation Zrotation
	JOINT Spine
	{
		OFFSET 0.000000 0.000000 0.102259
		CHANNELS 3 Xrotation Yrotation Zrotation
		JOINT Spine1
		{
			OFFSET 0.000000 -0.017757 0.100705
			CHANNELS 3 Xrotation Yrotation Zrotation
			JOINT Spine2
			{
				OFFSET 0.000000 -0.008912 0.101870
				CHANNELS 3 Xrotation Yrotation Zrotation
				JOINT Spine3
				{
					OFFSET 0.000000 0.000000 0.102259
					CHANNELS 3 Xrotation Yrotation Zrotation
					JOINT Neck
					{
						OFFSET 0.000000 0.013148 0.131476
						CHANNELS 3 Xrotation Yrotation Zrotation
						JOINT Neck1
						{
							OFFSET 0.000000 0.003817 0.043628
							CHANNELS 3 Xrotation Yrotation Zrotation
							JOINT Head
							{
								OFFSET 0.000000 0.007605 0.043130
								CHANNELS 3 Xrotation Yrotation Zrotation
								End Site
								{
									OFFSET 0.000000 0.000000 0.097916
								}
							}
						}
					}
					JOINT RightShoulder
					{
						OFFSET 0.000000 0.000000 0.092033
						CHANNELS 3 Xrotation Yrotation Zrotation
						JOINT RightArm
						{
							OFFSET 0.166682 0.000000 0.000000
							CHANNELS 3 Xrotation Yrotation Zrotation
							JOINT RightForeArm
							{
								OFFSET 0.339269 0.000000 0.000000
								CHANNELS 3 Xrotation Yrotation Zrotation
								JOINT RightHand
								{
									OFFSET 0.272813 0.000000 0.000000
									CHANNELS 3 Xrotation Yrotation Zrotation
									End Site
									{
										OFFSET 0.042337 0.031482 -0.014412
									}
									End Site
									{
										OFFSET 0.112899 -0.001086 0.000000
									}
								}
							}
						}
					}
					JOINT LeftShoulder
					{
						OFFSET 0.000000 0.000000 0.092033
						CHANNELS 3 Xrotation Yrotation Zrotation
						JOINT LeftArm
						{
							OFFSET -0.166682 0.000000 0.000000
							CHANNELS 3 Xrotation Yrotation Zrotation
							JOINT LeftForeArm
							{
								OFFSET -0.339269 0.000000 0.000000
								CHANNELS 3 Xrotation Yrotation Zrotation
								JOINT LeftHand
								{
									OFFSET -0.272813 0.000000 0.000000
									CHANNELS 3 Xrotation Yrotation Zrotation
									End Site
									{
										OFFSET -0.042337 0.031482 -0.014412
									}
									End Site
									{
										OFFSET -0.112899 -0.001086 0.000000
									}
								}
							}
						}
					}
				}
			}
		}
	}
	JOINT RightUpLeg
	{
		OFFSET 0.120852 0.000000 0.000000
		CHANNELS 3 Xrotation Yrotation Zrotation
		JOINT RightLeg
		{
			OFFSET 0.000000 0.000000 -0.533302
			CHANNELS 3 Xrotation Yrotation Zrotation
			JOINT RightFoot
			{
				OFFSET 0.000000 0.000000 -0.471812
				CHANNELS 3 Xrotation Yrotation Zrotation
				JOINT RightToeBase
				{
					OFFSET 0.000000 0.169608 -0.043308
					CHANNELS 3 Xrotation Yrotation Zrotation
					End Site
					{
						OFFSET 0.000000 0.063837 0.000000
					}
				}
			}
		}
	}
	JOINT LeftUpLeg
	{
		OFFSET -0.120852 0.000000 0.000000
		CHANNELS 3 Xrotation Yrotation Zrotation
		JOINT LeftLeg
		{
			OFFSET 0.000000 0.000000 -0.533302
			CHANNELS 3 Xrotation Yrotation Zrotation
			JOINT LeftFoot
			{
				OFFSET 0.000000 0.000000 -0.471812
				CHANNELS 3 Xrotation Yrotation Zrotation
				JOINT LeftToeBase
				{
					OFFSET 0.000000 0.169608 -0.043308
					CHANNELS 3 Xrotation Yrotation Zrotation
					End Site
					{
						OFFSET 0.000000 0.064424 0.000000
					}
				}
			}
		}
	}
}
MOTION
Frames: 8
Frame Time: 0.008333
-5.041946 0.507985 2.549971 -119.528409 1.748804 -43.167706 -32.125285 12.185194 5.679667 -32.026203 12.632681 4.583280 0.515414 -10.053124 -0.225055 0.515414 -10.053124 -0.225055 -9.670749 17.096613 3.768870 2.174577 4.651029 2.956243 18.657920 -13.178228 6.018558 10.981129 -34.540786 18.892212 51.520534 54.346593 23.817283 2.407424 5.898217 67.749358 0.000040 -9.115402 -21.025465 10.250122 16.172917 -32.992375 54.698161 -64.816835 5.922201 5.047886 -1.917981 -20.751848 -179.999906 71.851794 67.234893 92.457688 -7.947827 -18.973311 -126.390600 0.000000 0.000000 45.250261 16.376050 -8.676332 15.104300 0.000000 0.000000 52.016497 6.651236 -26.421044 -145.135500 0.000000 0.000000 4.353079 5.644848 2.307797 14.573300 0.000000 0.000000 
-5.042134 0.507688 2.550175 -119.526909 1.806821 -43.125061 -32.090291 12.178933 5.669402 -31.991100 12.625569 4.573518 0.507601 -10.044122 -0.228197 0.507601 -10.044122 -0.228197 -9.612920 17.065906 3.745126 2.201281 4.645900 2.940972 18.642233 -13.143935 5.995627 10.937548 -34.579599 18.803491 51.508470 54.371629 23.856050 2.397444 5.882073 67.778011 -0.000046 -9.242328 -21.133235 10.245297 16.196458 -32.942672 54.744738 -64.895417 5.929414 4.994728 -1.901276 -20.787869 179.999965 71.843959 67.266154 92.552225 -8.000147 -18.917194 -126.430500 0.000000 0.000000 45.252882 16.393796 -8.687875 15.109900 0.000000 0.000000 52.095456 6.575291 -26.437338 -145.172600 0.000000 0.000000 4.341145 5.628537 2.288339 14.579600 0.000000 0.000000 
-5.042136 0.508389 2.550098 -119.443316 1.676688 -43.119755 -32.224548 12.206920 5.693028 -32.125075 12.655521 4.594556 0.539929 -10.055219 -0.232369 0.539929 -10.055219 -0.232369 -9.689321 17.044216 3.752118 2.191050 4.642019 2.937644 18.720485 -13.121018 5.996915 11.010911 -34.585443 18.921037 51.544160 54.263091 23.754951 2.422810 5.939279 67.760095 -0.000031 -9.374526 -21.157658 10.267409 16.164922 -33.049982 54.683390 -64.773916 5.853365 5.078150 -1.930160 -20.757900 -179.999924 71.848029 67.249640 92.328621 -7.993217 -18.957501 -126.339300 0.000000 0.000000 45.228530 16.402401 -8.685758 15.133500 0.000000 0.000000 52.001281 6.554620 -26.485255 -145.103100 0.000000 0.000000 4.192443 5.624481 2.277772 14.627300 0.000000 0.000000 
-5.042403 0.509069 2.549974 -119.323061 1.639157 -43.054499 -32.341962 12.222557 5.687839 -32.242109 12.670690 4.587962 0.578220 -10.056903 -0.254714 0.578220 -10.056903 -0.254714 -9.715341 17.016988 3.745400 2.200875 4.635467 2.927885 18.778656 -13.095429 5.988997 11.052923 -34.594881 18.985573 51.584799 54.149631 23.687442 2.424526 5.943335 67.759519 -0.000040 -9.474304 -21.229594 10.285984 16.146066 -33.128395 54.713508 -64.687702 5.836315 5.117457 -1.944734 -20.753486 -179.999995 71.844831 67.216869 92.173996 -8.070403 -18.889348 -126.270100 0.000000 0.000000 45.204143 16.441043 -8.661408 15.126800 0.000000 0.000000 51.983939 6.367296 -26.456347 -145.029000 0.000000 0.000000 3.953616 5.639332 2.338122 14.669500 0.000000 0.000000 
-5.042715 0.509445 2.549923 -119.227819 1.671296 -42.988039 -32.401686 12.216719 5.666734 -32.301897 12.662963 4.567526 0.602677 -10.049785 -0.276340 0.602677 -10.049785 -0.276340 -9.689727 16.990957 3.727727 2.220299 4.628931 2.914414 18.789600 -13.070840 5.972173 11.058613 -34.603662 18.991021 51.603504 54.076230 23.681324 2.411322 5.911540 67.761976 -0.000026 -9.556144 -21.324450 10.298222 16.148966 -33.155518 54.780443 -64.660749 5.858186 5.138068 -1.954434 -20.771200 -179.999865 71.836111 67.184551 92.131240 -8.155685 -18.783873 -126.241900 0.000000 0.000000 45.175431 16.471654 -8.637318 15.120800 0.000000 0.000000 52.029368 6.163662 -26.403624 -144.983300 0.000000 0.000000 3.736071 5.647794 2.394933 14.697600 0.000000 0.000000 
-5.042936 0.509587 2.549949 -119.173007 1.700333 -42.944369 -32.431194 12.210354 5.651860 -32.331331 12.655331 4.553141 0.616541 -10.043575 -0.289334 0.616541 -10.043575 -0.289334 -9.632022 16.961942 3.703832 2.239453 4.624900 2.898947 18.755662 -13.036891 5.946810 11.049473 -34.617816 18.969787 51.618839 54.050191 23.689976 2.387024 5.851200 67.760292 -0.000027 -9.614942 -21.416551 10.307279 16.164625 -33.154198 54.855134 -64.668991 5.903164 5.143412 -1.959526 -20.800779 -179.999780 71.821013 67.159978 92.130331 -8.213212 -18.708292 -126.235500 0.000000 0.000000 45.147537 16.495034 -8.615612 15.130800 0.000000 0.000000 52.074197 6.037208 -26.377481 -144.969300 0.000000 0.000000 3.612708 5.662701 2.414590 14.699400 0.000000 0.000000 
-5.043094 0.509631 2.550009 -119.136906 1.725976 -42.912741 -32.444225 12.203425 5.640148 -32.344494 12.647442 4.542134 0.621864 -10.038167 -0.297961 0.621864 -10.038167 -0.297961 -9.583072 16.944710 3.685090 2.255538 4.622051 2.887298 18.727137 -13.017404 5.928580 11.042089 -34.632230 18.951185 51.641299 54.040831 23.687387 2.373064 5.814636 67.752765 -0.000001 -9.665339 -21.494121 10.325990 16.198529 -33.149588 54.943513 -64.697588 5.978041 5.169800 -1.972608 -20.829437 179.999945 71.788623 67.118097 92.143901 -8.253609 -18.653922 -126.237700 0.000000 0.000000 45.122767 16.505132 -8.598944 15.138600 0.000000 0.000000 52.114235 5.948925 -26.357785 -144.962500 0.000000 0.000000 3.523895 5.692579 2.437327 14.720700 0.000000 0.000000 
-5.043231 0.509633 2.550060 -119.105002 1.744973 -42.891427 -32.455234 12.196138 5.631295 -32.355480 12.639403 4.533996 0.627612 -10.034062 -0.303543 0.627612 -10.034062 -0.303543 -9.550780 16.939818 3.668370 2.265785 4.620902 2.875053 18.707333 -13.010097 5.912902 11.035636 -34.640123 18.937209 51.642797 54.032527 23.695557 2.360262 5.778789 67.737755 0.000015 -9.720878 -21.566289 10.340082 16.222596 -33.148282 55.002166 -64.719373 6.029679 5.196287 -1.985146 -20.852210 179.999970 71.762038 67.078828 92.154804 -8.282647 -18.610932 -126.242400 0.000000 0.000000 45.106459 16.507517 -8.593936 15.141300 0.000000 0.000000 52.140628 5.873832 -26.339740 -144.963000 0.000000 0.000000 3.457694 5.705180 2.458083 14.710600 0.000000 0.000000 
